<svg width="24" height="24" viewBox="0 0 24 24" fill="none" xmlns="http://www.w3.org/2000/svg">
<path d="M15.4985 11.0846V4.40731C15.4985 3.7228 15.2273 3.06411 14.7365 2.58624L12.528 0.377704C12.4085 0.257973 12.2665 0.162983 12.1103 0.0981719C11.9541 0.0333605 11.7866 0 11.6174 0C11.4483 0 11.2808 0.0333605 11.1245 0.0981719C10.9683 0.162983 10.8264 0.257973 10.7069 0.377704L8.51126 2.57332C8.02047 3.06411 7.74925 3.7228 7.74925 4.40731V5.91842H2.58308C1.16239 5.91842 0 7.08081 0 8.5015V21.4169C0 22.8376 1.16239 24 2.58308 24H20.6647C22.0854 24 23.2477 22.8376 23.2477 21.4169V13.6677C23.2477 12.247 22.0854 11.0846 20.6647 11.0846H15.4985ZM5.16617 21.4169H2.58308V18.8338H5.16617V21.4169ZM5.16617 16.2508H2.58308V13.6677H5.16617V16.2508ZM5.16617 11.0846H2.58308V8.5015H5.16617V11.0846ZM12.9154 21.4169H10.3323V18.8338H12.9154V21.4169ZM12.9154 16.2508H10.3323V13.6677H12.9154V16.2508ZM12.9154 11.0846H10.3323V8.5015H12.9154V11.0846ZM12.9154 5.91842H10.3323V3.33533H12.9154V5.91842ZM20.6647 21.4169H18.0816V18.8338H20.6647V21.4169ZM20.6647 16.2508H18.0816V13.6677H20.6647V16.2508Z" fill="#6E6D7A"/>
</svg>
