<svg width="24" height="24" viewBox="0 0 24 24" fill="none" xmlns="http://www.w3.org/2000/svg">
<path d="M20.4 2H3.6C2.64522 2 1.72955 2.37928 1.05442 3.05442C0.379285 3.72955 0 4.64522 0 5.6V17.6C0 18.5548 0.379285 19.4705 1.05442 20.1456C1.72955 20.8207 2.64522 21.2 3.6 21.2H20.4C21.3548 21.2 22.2705 20.8207 22.9456 20.1456C23.6207 19.4705 24 18.5548 24 17.6V5.6C24 4.64522 23.6207 3.72955 22.9456 3.05442C22.2705 2.37928 21.3548 2 20.4 2ZM20.4 4.4L12.6 9.764C12.4176 9.86932 12.2106 9.92477 12 9.92477C11.7894 9.92477 11.5824 9.86932 11.4 9.764L3.6 4.4H20.4Z" fill="#6E6D7A"/>
</svg>
