<svg width="24" height="24" viewBox="0 0 24 24" fill="none" xmlns="http://www.w3.org/2000/svg">
<path d="M12 0C8.8174 0 5.76516 1.26428 3.51472 3.51472C1.26428 5.76516 0 8.8174 0 12C0 15.1826 1.26428 18.2348 3.51472 20.4853C5.76516 22.7357 8.8174 24 12 24C15.1826 24 18.2348 22.7357 20.4853 20.4853C22.7357 18.2348 24 15.1826 24 12C24 8.8174 22.7357 5.76516 20.4853 3.51472C18.2348 1.26428 15.1826 0 12 0V0ZM16.6133 15.9333C16.6133 17.8933 15.5467 20.3333 11.2 22.2C11.6 16.64 7.84 17.28 6.93333 15.5333C7.01591 14.8107 7.27903 14.1205 7.69845 13.5264C8.11788 12.9322 8.68011 12.4531 9.33333 12.1333C7.26423 11.7784 5.33457 10.8552 3.76 9.46667C3.82667 10.0933 4.132 10.672 4.61333 11.08C3.57055 10.6869 2.66954 9.99028 2.02667 9.08C2.66237 6.98187 3.93376 5.13283 5.6653 3.7882C7.39685 2.44357 9.50313 1.66966 11.6933 1.57333C10.5733 3.41333 9.69333 7.08 11.6933 9C9.64 9.33333 8.34667 6.66667 7.21333 7.72C5.70667 9.13333 7.65333 11.0667 11.7733 11.8267C16.16 12.6133 16.6533 13.9333 16.6133 15.9333ZM18.4 10.6C17.9733 9.12 19.2267 7.62667 20.6533 6.41333C21.5443 7.69763 22.1115 9.17833 22.3065 10.7292C22.5015 12.2801 22.3186 13.8551 21.7733 15.32C20.7467 12.8 18.88 12.2267 18.4 10.56V10.6Z" fill="#6E6D7A"/>
</svg>
